# xmcd
#
# Track frame offsets:
#	150
#	11236
#	24649
#	35993
#	47491
#	59316
#	73405
#	83697
#	96295
#	108907
#	122299
#	134417
#	146367
#	158485
#	169788
#	181641
#	194225
#	206419
#	219275
#	231323
#
# Disc length: 3254 seconds
#
# Revision: 0
# Processed by: cddbd v1.5.1PL0 Copyright (c) Steve Scherf et al.
# Submitted via: dBpowerAMP V4.0
#
DISCID=190cb414
DTITLE=Hank Williams -  40 Greatest Hits  (Disc. 2)
DYEAR=1988
DGENRE=Country
TTITLE0=I Can't Help It ( If I'm Still In Love With You )
TTITLE1=Hey Good Lookin'
TTITLE2=Crazy Heart
TTITLE3=( I Heard That ) Lonesome Whistle
TTITLE4=Baby, We're Really In Love
TTITLE5=Ramblin' Man
TTITLE6=Honky Tonk Blues
TTITLE7=I'm Sorry For You My Friend
TTITLE8=Half As Much
TTITLE9=Jambalaya ( On The Bayou )
TTITLE10=Window Shopping
TTITLE11=Settin' The Woods On Fire
TTITLE12=You Win Again
TTITLE13=I'll Never Get Out Of The World Alive
TTITLE14=Kaw-Liga
TTITLE15=Your Cheatin' Heart
TTITLE16=Take These Chains From My Heart
TTITLE17=I Won't Be Home No More
TTITLE18=Weary Blues From Waitin'
TTITLE19=I Saw The Light
EXTD=
EXTT0=
EXTT1=
EXTT2=
EXTT3=
EXTT4=
EXTT5=
EXTT6=
EXTT7=
EXTT8=
EXTT9=
EXTT10=
EXTT11=
EXTT12=
EXTT13=
EXTT14=
EXTT15=
EXTT16=
EXTT17=
EXTT18=
EXTT19=
PLAYORDER=
